<svg width="683" height="683" xmlns="http://www.w3.org/2000/svg" xmlns:xlink="http://www.w3.org/1999/xlink" overflow="hidden"><g><rect x="0" y="0" width="683" height="683" fill="#395886"/><path d="M512.372 262.216 630.285 262.216 630.285 594.81 512.372 594.81ZM191.072 202.364 191.072 324.219 214.81 324.219C241.668 324.219 260.971 318.621 272.72 307.425 285.428 295.273 291.782 280.502 291.782 263.112 291.782 245.723 285.428 231.071 272.72 219.158 260.728 207.962 241.425 202.364 214.81 202.364ZM63.8404 105.596 261.676 105.596C319.498 105.596 362.267 122.919 389.983 157.564 412.443 185.519 423.672 218.372 423.672 256.124 423.672 299.37 410.77 333.896 384.965 359.701 368.479 376.187 345.781 387.656 316.87 394.107L470.623 594.81 312.569 594.81 191.072 407.009 191.072 594.81 63.8404 594.81ZM571.328 68.6813C589.677 68.6813 605.286 75.055 618.152 87.8024 631.019 100.55 637.453 116.098 637.453 134.447 637.453 153.036 631.079 168.703 618.332 181.451 605.584 194.198 589.916 200.572 571.328 200.572 552.979 200.572 537.431 194.138 524.683 181.272 511.936 168.405 505.562 152.797 505.562 134.447 505.562 116.098 511.936 100.55 524.683 87.8024 537.431 75.055 552.979 68.6813 571.328 68.6813Z" stroke="#FFFFFF" stroke-width="29" stroke-linejoin="round" stroke-miterlimit="10" fill="#F0F3FA" fill-rule="evenodd"/><text fill="#000000" fill-opacity="0" font-family="Arial,Arial_MSFontService,sans-serif" font-size="526.129" x="63.8404" y="529.044">Ri</text><path d="M191.086 208.164 191.086 330.02 233.511 330.02C261.074 330.02 280.01 324.029 290.317 312.049 299.666 301.264 304.34 286.646 304.34 268.196 304.34 249.981 299.007 235.422 288.341 224.519 277.675 213.616 259.518 208.164 233.87 208.164ZM63.8544 105.662 266.35 105.662C323.932 105.662 367.657 122.488 397.523 156.14 423.328 185.021 436.23 221.895 436.23 266.762 436.23 310.916 425.837 347.434 405.05 376.315 378.05 413.786 333.251 432.522 270.65 432.522L191.086 432.522 191.086 594.876 63.8544 594.876Z" stroke="#FFFFFF" stroke-width="31" stroke-linejoin="round" stroke-miterlimit="10" fill="#9DB0CE" fill-rule="evenodd"/><text fill="#000000" fill-opacity="0" font-family="Arial,Arial_MSFontService,sans-serif" font-size="489.214" x="63.8544" y="533.724">P</text><path d="M512.382 262.128 630.295 262.128 630.295 594.721 512.382 594.721ZM571.338 68.5924C589.688 68.5924 605.296 74.9661 618.162 87.7135 631.029 100.461 637.463 116.009 637.463 134.359 637.463 152.947 631.089 168.615 618.342 181.362 605.594 194.109 589.926 200.483 571.338 200.483 552.989 200.483 537.441 194.05 524.693 181.183 511.946 168.316 505.572 152.708 505.572 134.359 505.572 116.009 511.946 100.461 524.693 87.7135 537.441 74.9661 552.989 68.5924 571.338 68.5924Z" stroke="#FFFFFF" stroke-width="29" stroke-linejoin="round" stroke-miterlimit="10" fill="#9DB0CE" fill-rule="evenodd"/><text fill="#000000" fill-opacity="0" font-family="Arial,Arial_MSFontService,sans-serif" font-size="526.129" x="505.572" y="528.955">i</text><path d="M210.026 268.972C209.193 219.074 228.692 224.196 241.851 224.114 255.01 224.032 287.984 224.852 288.979 268.482 289.975 312.111 255.01 313.747 241.851 313.829 228.692 313.911 210.859 318.869 210.026 268.972Z" fill="#395886" fill-rule="evenodd"/><rect x="206" y="303" width="31" height="11" fill="#395886"/></g></svg>