<svg width="1280" height="720" xmlns="http://www.w3.org/2000/svg" xmlns:xlink="http://www.w3.org/1999/xlink" overflow="hidden"><g><rect x="0" y="0" width="1280" height="720" fill="#FFFFFF" fill-opacity="0"/><path d="M680.297 348.859C672.365 348.859 665.91 351.842 660.933 357.808 656.889 362.595 654.867 368.05 654.867 374.172 654.867 380.372 656.889 385.866 660.933 390.653 665.91 396.619 672.365 399.602 680.297 399.602 687.373 399.602 693.361 397.149 698.26 392.243 703.16 387.338 705.609 381.314 705.609 374.172 705.609 367.108 703.14 361.123 698.202 356.217 693.263 351.312 687.295 348.859 680.297 348.859ZM1165.78 341.008C1159.25 341.008 1153.97 342.959 1149.93 346.862 1146.74 349.968 1144.72 354.15 1143.87 359.406L1187.58 359.406C1184.86 347.141 1177.59 341.008 1165.78 341.008ZM328.781 341.008C322.254 341.008 316.97 342.959 312.928 346.862 309.742 349.968 307.722 354.15 306.867 359.406L350.578 359.406C347.858 347.141 340.593 341.008 328.781 341.008ZM981.719 319.797 1090.23 319.797 1039.26 397.023 1085.08 397.023 1085.08 428.547 974.805 428.547 1026.13 351.32 981.719 351.32ZM918.008 319.797 956.562 319.797 956.562 428.547 918.008 428.547ZM556.488 317.922C564.625 317.922 571.864 319.875 578.203 323.781 585.01 328.078 589.47 333.898 591.582 341.242 592.835 345.695 593.461 351.242 593.461 357.883L593.461 428.547 554.906 428.547 554.906 374.837C554.906 365.475 553.93 359.078 551.977 355.645 549.086 350.574 544.75 348.039 538.969 348.039 532.562 348.039 527.641 350.808 524.203 356.347 521.781 360.248 520.57 366.411 520.57 374.837L520.57 428.547 482.016 428.547 482.016 374.837C482.016 365.475 481.234 359.39 479.672 356.581 476.547 350.964 471.742 348.156 465.258 348.156 459.242 348.156 454.555 350.574 451.195 355.411 449.945 357.127 449.047 359.487 448.5 362.491 447.953 365.494 447.68 369.609 447.68 374.837L447.68 428.547 409.125 428.547 409.125 319.797 447.68 319.797 447.68 333.156C452.218 328.781 456.366 325.578 460.122 323.547 466.93 319.875 474.52 318.039 482.893 318.039 493.613 318.039 502.534 320.812 509.655 326.359 513.255 329.172 516.698 333.156 519.984 338.312 522.958 333.469 526.284 329.641 529.962 326.828 537.708 320.891 546.55 317.922 556.488 317.922ZM208.488 317.922C216.625 317.922 223.864 319.875 230.203 323.781 237.011 328.078 241.47 333.898 243.582 341.242 244.835 345.695 245.461 351.242 245.461 357.883L245.461 428.547 206.906 428.547 206.906 374.837C206.906 365.475 205.93 359.078 203.976 355.645 201.086 350.574 196.75 348.039 190.969 348.039 184.562 348.039 179.641 350.808 176.203 356.347 173.781 360.248 172.57 366.411 172.57 374.837L172.57 428.547 134.016 428.547 134.016 374.837C134.016 365.475 133.234 359.39 131.672 356.581 128.547 350.964 123.742 348.156 117.258 348.156 111.242 348.156 106.555 350.574 103.195 355.411 101.945 357.127 101.047 359.487 100.5 362.491 99.953 365.494 99.6796 369.609 99.6796 374.837L99.6796 428.547 61.1249 428.547 61.1249 319.797 99.6796 319.797 99.6796 333.156C104.218 328.781 108.366 325.578 112.122 323.547 118.929 319.875 126.52 318.039 134.893 318.039 145.613 318.039 154.534 320.812 161.655 326.359 165.255 329.172 168.698 333.156 171.984 338.312 174.958 333.469 178.284 329.641 181.962 326.828 189.708 320.891 198.55 317.922 208.488 317.922ZM1164.26 316.75C1187.93 316.75 1204.84 325.36 1215 342.579 1220.7 352.283 1223.55 363.554 1223.55 376.389L1223.55 381.32 1142.81 381.32C1142.81 397.648 1150.66 405.812 1166.35 405.812 1174.36 405.812 1180.49 402.375 1184.77 395.5L1222.03 395.5C1219.06 405.313 1214.69 412.907 1208.91 418.28 1198.44 428.015 1184.41 432.883 1166.84 432.883 1144.49 432.883 1127.7 426.086 1116.45 412.492 1108.01 402.336 1103.79 389.953 1103.79 375.344 1103.79 358 1109.06 343.898 1119.61 333.039 1130.16 322.18 1145.04 316.75 1164.26 316.75ZM327.258 316.75C350.93 316.75 367.844 325.36 378 342.579 383.703 352.283 386.555 363.554 386.555 376.389L386.555 381.32 305.812 381.32C305.812 397.648 313.659 405.812 329.352 405.812 337.355 405.812 343.493 402.375 347.766 395.5L385.031 395.5C382.062 405.313 377.687 412.907 371.906 418.28 361.437 428.015 347.414 432.883 329.836 432.883 307.492 432.883 290.695 426.086 279.445 412.492 271.008 402.336 266.789 389.953 266.789 375.344 266.789 358 272.062 343.898 282.609 333.039 293.156 322.18 308.039 316.75 327.258 316.75ZM681.469 315.812C702.016 315.812 718.422 322.414 730.687 335.617 740.687 346.398 745.687 359.25 745.687 374.172 745.687 389.25 740.726 402.18 730.805 412.961 718.773 426.086 701.937 432.648 680.297 432.648 658.578 432.648 641.703 426.086 629.672 412.961 619.75 402.18 614.789 388.938 614.789 373.234 614.789 359.094 619.789 346.555 629.789 335.617 641.898 322.414 659.125 315.812 681.469 315.812ZM813.359 300.227 813.359 340.07 821.121 340.07C829.903 340.07 836.214 338.24 840.056 334.579 844.211 330.606 846.289 325.776 846.289 320.09 846.289 314.404 844.211 309.613 840.056 305.718 836.135 302.057 829.823 300.227 821.121 300.227ZM771.758 268.586 836.445 268.586C855.351 268.586 869.336 274.25 878.398 285.578 885.742 294.719 889.414 305.461 889.414 317.805 889.414 331.945 885.195 343.234 876.758 351.672 871.367 357.062 863.945 360.812 854.492 362.922L904.766 428.547 853.086 428.547 813.359 367.141 813.359 428.547 771.758 428.547ZM937.285 256.516C943.285 256.516 948.388 258.6 952.595 262.768 956.803 266.936 958.906 272.02 958.906 278.02 958.906 284.097 956.822 289.22 952.654 293.388 948.486 297.557 943.363 299.641 937.285 299.641 931.285 299.641 926.201 297.537 922.033 293.33 917.865 289.123 915.781 284.019 915.781 278.02 915.781 272.02 917.865 266.936 922.033 262.768 926.201 258.6 931.285 256.516 937.285 256.516Z" stroke="#FFFFFF" stroke-width="6" stroke-linejoin="round" stroke-miterlimit="10" fill="#9DB0CE" fill-rule="evenodd"/><text fill="#000000" fill-opacity="0" font-family="Arial,Arial_MSFontService,sans-serif" font-size="176.367" x="61.1249" y="410.837">memoRize</text><path d="M812.236 302.102 812.236 341.945 826.108 341.945C835.12 341.945 841.312 339.987 844.682 336.069 847.739 332.543 849.267 327.763 849.267 321.73 849.267 315.775 847.523 311.014 844.036 307.449 840.548 303.884 834.611 302.102 826.225 302.102ZM770.634 268.586 836.845 268.586C855.673 268.586 869.97 274.088 879.736 285.091 888.173 294.534 892.392 306.591 892.392 321.262 892.392 335.699 888.994 347.639 882.197 357.083 873.369 369.335 858.72 375.461 838.252 375.461L812.236 375.461 812.236 428.547 770.634 428.547Z" stroke="#FFFFFF" stroke-width="6" stroke-linejoin="round" stroke-miterlimit="10" fill="#395886" fill-rule="evenodd"/><text fill="#000000" fill-opacity="0" font-family="Arial,Arial_MSFontService,sans-serif" font-size="159.961" x="770.634" y="408.552">P</text><path d="M918.042 319.797 956.597 319.797 956.597 428.547 918.042 428.547ZM937.32 256.516C943.319 256.516 948.423 258.6 952.63 262.768 956.837 266.936 958.941 272.02 958.941 278.02 958.941 284.097 956.857 289.22 952.688 293.388 948.52 297.557 943.397 299.641 937.32 299.641 931.32 299.641 926.236 297.537 922.068 293.33 917.9 289.123 915.816 284.019 915.816 278.02 915.816 272.02 917.9 266.936 922.068 262.768 926.236 258.6 931.32 256.516 937.32 256.516Z" stroke="#FFFFFF" stroke-width="6" stroke-linejoin="round" stroke-miterlimit="10" fill="#395886" fill-rule="evenodd"/><text fill="#000000" fill-opacity="0" font-family="Arial,Arial_MSFontService,sans-serif" font-size="172.031" x="915.816" y="407.043">i</text></g></svg>