<svg width="4678" height="1033" xmlns="http://www.w3.org/2000/svg" xmlns:xlink="http://www.w3.org/1999/xlink" xml:space="preserve" overflow="hidden"><g transform="translate(139 -721)"><path d="M2338.4 1200.58C2311.13 1200.58 2288.94 1210.83 2271.83 1231.34 2257.93 1247.8 2250.98 1266.55 2250.98 1287.59 2250.98 1308.9 2257.93 1327.79 2271.83 1344.25 2288.94 1364.75 2311.13 1375.01 2338.4 1375.01 2362.72 1375.01 2383.3 1366.57 2400.14 1349.71 2416.99 1332.85 2425.41 1312.14 2425.41 1287.59 2425.41 1263.31 2416.92 1242.73 2399.94 1225.87 2382.97 1209.01 2362.45 1200.58 2338.4 1200.58ZM4006.31 1173.59C3983.87 1173.59 3965.71 1180.3 3951.81 1193.71 3940.86 1204.39 3933.92 1218.77 3930.98 1236.83L4081.24 1236.83C4071.89 1194.67 4046.91 1173.59 4006.31 1173.59ZM1131.31 1173.59C1108.87 1173.59 1090.71 1180.3 1076.81 1193.71 1065.86 1204.39 1058.92 1218.77 1055.98 1236.83L1206.24 1236.83C1196.89 1194.67 1171.91 1173.59 1131.31 1173.59ZM3373.28 1100.68 3746.31 1100.68 3571.07 1366.14 3728.58 1366.14 3728.58 1474.5 3349.52 1474.5 3525.96 1209.04 3373.28 1209.04ZM3155.71 1100.68 3288.25 1100.68 3288.25 1474.5 3155.71 1474.5ZM1911.68 1094.23C1939.65 1094.23 1964.53 1100.95 1986.32 1114.37 2009.72 1129.14 2025.05 1149.15 2032.31 1174.39 2036.62 1189.7 2038.77 1208.77 2038.77 1231.6L2038.77 1474.5 1906.24 1474.5 1906.24 1289.88C1906.24 1257.7 1902.88 1235.71 1896.17 1223.91 1886.23 1206.47 1871.33 1197.76 1851.45 1197.76 1829.43 1197.76 1812.51 1207.28 1800.7 1226.32 1792.37 1239.73 1788.21 1260.91 1788.21 1289.88L1788.21 1474.5 1655.68 1474.5 1655.68 1289.88C1655.68 1257.7 1652.99 1236.78 1647.62 1227.12 1636.88 1207.82 1620.36 1198.16 1598.07 1198.16 1577.39 1198.16 1561.28 1206.47 1549.73 1223.1 1545.44 1229 1542.35 1237.11 1540.47 1247.44 1538.59 1257.76 1537.65 1271.91 1537.65 1289.88L1537.65 1474.5 1405.12 1474.5 1405.12 1100.68 1537.65 1100.68 1537.65 1146.6C1553.25 1131.56 1567.51 1120.55 1580.42 1113.57 1603.82 1100.95 1629.91 1094.63 1658.69 1094.63 1695.54 1094.63 1726.21 1104.17 1750.69 1123.24 1763.06 1132.9 1774.9 1146.6 1786.2 1164.32 1796.42 1147.67 1807.85 1134.51 1820.49 1124.85 1847.12 1104.44 1877.52 1094.23 1911.68 1094.23ZM716.678 1094.23C744.65 1094.23 769.531 1100.95 791.322 1114.37 814.724 1129.14 830.054 1149.15 837.314 1174.39 841.619 1189.7 843.772 1208.77 843.772 1231.6L843.772 1474.5 711.24 1474.5 711.24 1289.88C711.24 1257.7 707.883 1235.71 701.169 1223.91 691.233 1206.47 676.328 1197.76 656.455 1197.76 634.433 1197.76 617.514 1207.28 605.698 1226.32 597.373 1239.73 593.21 1260.91 593.21 1289.88L593.21 1474.5 460.678 1474.5 460.678 1289.88C460.678 1257.7 457.993 1236.78 452.622 1227.12 441.88 1207.82 425.363 1198.16 403.073 1198.16 382.395 1198.16 366.281 1206.47 354.734 1223.1 350.437 1229 347.348 1237.11 345.468 1247.44 343.589 1257.76 342.649 1271.91 342.649 1289.88L342.649 1474.5 210.117 1474.5 210.117 1100.68 342.649 1100.68 342.649 1146.6C358.25 1131.56 372.506 1120.55 385.418 1113.57 408.82 1100.95 434.912 1094.63 463.693 1094.63 500.544 1094.63 531.21 1104.17 555.69 1123.24 568.065 1132.9 579.9 1146.6 591.196 1164.32 601.418 1147.67 612.85 1134.51 625.493 1124.85 652.122 1104.44 682.517 1094.23 716.678 1094.23ZM4001.07 1090.2C4082.45 1090.2 4140.59 1119.8 4175.5 1178.99 4195.1 1212.35 4204.91 1251.09 4204.91 1295.21L4204.91 1312.16 3927.35 1312.16C3927.35 1368.29 3954.33 1396.36 4008.27 1396.36 4035.78 1396.36 4056.88 1384.54 4071.57 1360.91L4199.67 1360.91C4189.46 1394.64 4174.43 1420.74 4154.55 1439.21 4118.57 1472.68 4070.36 1489.41 4009.94 1489.41 3933.13 1489.41 3875.39 1466.05 3836.72 1419.32 3807.71 1384.4 3793.21 1341.84 3793.21 1291.62 3793.21 1232 3811.34 1183.53 3847.59 1146.2 3883.85 1108.87 3935.01 1090.2 4001.07 1090.2ZM1126.07 1090.2C1207.45 1090.2 1265.59 1119.8 1300.5 1178.99 1320.1 1212.35 1329.91 1251.09 1329.91 1295.21L1329.91 1312.16 1052.36 1312.16C1052.36 1368.29 1079.33 1396.36 1133.27 1396.36 1160.78 1396.36 1181.88 1384.54 1196.57 1360.91L1324.67 1360.91C1314.46 1394.64 1299.43 1420.74 1279.55 1439.21 1243.57 1472.68 1195.36 1489.41 1134.94 1489.41 1058.13 1489.41 1000.39 1466.05 961.718 1419.32 932.714 1384.4 918.212 1341.84 918.212 1291.62 918.212 1232 936.339 1183.53 972.594 1146.2 1008.85 1108.87 1060.01 1090.2 1126.07 1090.2ZM2342.42 1086.98C2413.05 1086.98 2469.45 1109.67 2511.61 1155.06 2545.99 1192.12 2563.18 1236.3 2563.18 1287.59 2563.18 1339.42 2546.12 1383.87 2512.02 1420.93 2470.66 1466.05 2412.78 1488.6 2338.4 1488.6 2263.74 1488.6 2205.73 1466.05 2164.37 1420.93 2130.27 1383.87 2113.21 1338.35 2113.21 1284.37 2113.21 1235.76 2130.4 1192.66 2164.77 1155.06 2206.4 1109.67 2265.62 1086.98 2342.42 1086.98ZM2794.61 1033.4 2794.61 1170.37 2821.29 1170.37C2851.48 1170.37 2873.17 1164.07 2886.38 1151.49 2900.66 1137.83 2907.81 1121.23 2907.81 1101.68 2907.81 1082.14 2900.66 1065.67 2886.38 1052.28 2872.9 1039.7 2851.21 1033.4 2821.29 1033.4ZM2651.6 924.639 2873.97 924.639C2938.96 924.639 2987.03 944.109 3018.18 983.05 3043.43 1014.47 3056.05 1051.4 3056.05 1093.83 3056.05 1142.44 3041.55 1181.24 3012.54 1210.25 2994.01 1228.78 2968.5 1241.67 2936 1248.92L3108.82 1474.5 2931.17 1474.5 2794.61 1263.42 2794.61 1474.5 2651.6 1474.5ZM3221.98 883.147C3242.6 883.147 3260.15 890.311 3274.61 904.639 3289.07 918.967 3296.3 936.443 3296.3 957.067 3296.3 977.96 3289.14 995.57 3274.81 1009.9 3260.48 1024.23 3242.87 1031.39 3221.98 1031.39 3201.36 1031.39 3183.88 1024.16 3169.55 1009.7 3155.22 995.234 3148.06 977.691 3148.06 957.067 3148.06 936.443 3155.22 918.967 3169.55 904.639 3183.88 890.311 3201.36 883.147 3221.98 883.147Z" stroke="#FFFFFF" stroke-width="21" stroke-linejoin="round" stroke-miterlimit="10" fill="#F0F3FA" fill-rule="evenodd"/><text fill="#000000" fill-opacity="0" font-family="Arial,Arial_MSFontService,sans-serif" font-size="606.262" x="210.117" y="1413.63">memoRize</text><path d="M2792.06 1039.85 2792.06 1176.81 2839.75 1176.81C2870.73 1176.81 2892.01 1170.08 2903.6 1156.61 2914.1 1144.49 2919.36 1128.06 2919.36 1107.32 2919.36 1086.85 2913.36 1070.49 2901.37 1058.23 2889.38 1045.98 2868.98 1039.85 2840.15 1039.85ZM2649.06 924.639 2876.66 924.639C2941.38 924.639 2990.52 943.551 3024.09 981.375 3053.1 1013.84 3067.6 1055.28 3067.6 1105.71 3067.6 1155.34 3055.92 1196.39 3032.55 1228.85 3002.21 1270.96 2951.85 1292.02 2881.49 1292.02L2792.06 1292.02 2792.06 1474.5 2649.06 1474.5Z" stroke="#FFFFFF" stroke-width="21" stroke-linejoin="round" stroke-miterlimit="10" fill="#9DB0CE" fill-rule="evenodd"/><text fill="#000000" fill-opacity="0" font-family="Arial,Arial_MSFontService,sans-serif" font-size="549.866" x="2649.06" y="1405.77">P</text><path d="M3155.77 1100.68 3288.3 1100.68 3288.3 1474.5 3155.77 1474.5ZM3222.04 883.147C3242.66 883.147 3260.2 890.311 3274.67 904.639 3289.13 918.967 3296.36 936.443 3296.36 957.067 3296.36 977.96 3289.19 995.57 3274.87 1009.9 3260.54 1024.23 3242.93 1031.39 3222.04 1031.39 3201.41 1031.39 3183.94 1024.16 3169.61 1009.7 3155.28 995.234 3148.12 977.691 3148.12 957.067 3148.12 936.443 3155.28 918.967 3169.61 904.639 3183.94 890.311 3201.41 883.147 3222.04 883.147Z" stroke="#FFFFFF" stroke-width="21" stroke-linejoin="round" stroke-miterlimit="10" fill="#9DB0CE" fill-rule="evenodd"/><text fill="#000000" fill-opacity="0" font-family="Arial,Arial_MSFontService,sans-serif" font-size="591.357" x="3148.12" y="1400.59">i</text></g></svg>